<?xml version="1.0" encoding="UTF-8"?>
<!DOCTYPE svg PUBLIC "-//W3C//DTD SVG 1.1//EN" "http://www.w3.org/Graphics/SVG/1.1/DTD/svg11.dtd">
<svg xmlns="http://www.w3.org/2000/svg" version="1.1" width="500px" height="500px" style="shape-rendering:geometricPrecision; text-rendering:geometricPrecision; image-rendering:optimizeQuality; fill-rule:evenodd; clip-rule:evenodd" xmlns:xlink="http://www.w3.org/1999/xlink">
<g><path style="opacity:0.976" fill="#fefffe" d="M 99.5,49.5 C 149.481,89.8099 199.481,130.143 249.5,170.5C 299.478,130.356 349.311,90.0228 399,49.5C 399.667,67.5 399.667,85.5 399,103.5C 349.311,144.023 299.478,184.356 249.5,224.5C 213.522,195.69 177.689,166.69 142,137.5C 141.667,195.167 141.333,252.833 141,310.5C 127.333,320.5 113.667,330.5 100,340.5C 99.5,243.501 99.3333,146.501 99.5,49.5 Z"/></g>
<g><path style="opacity:0.978" fill="#a5a6a5" d="M 398.5,158.5 C 399.666,255.332 399.832,352.332 399,449.5C 350.667,409.167 302.333,368.833 254,328.5C 202.848,369.074 151.515,409.408 100,449.5C 99.3333,430.833 99.3333,412.167 100,393.5C 150.547,353.285 201.38,313.452 252.5,274C 253.5,273.333 254.5,273.333 255.5,274C 289,303.5 322.5,333 356,362.5C 357.033,303.517 358.2,244.517 359.5,185.5C 372.817,176.832 385.817,167.832 398.5,158.5 Z"/></g>
</svg>
